<?xml version="1.0" encoding="UTF-8" standalone="no"?>
<!-- Created with Inkscape (http://www.inkscape.org/) -->

<svg
   xmlns:dc="http://purl.org/dc/elements/1.1/"
   xmlns:cc="http://creativecommons.org/ns#"
   xmlns:rdf="http://www.w3.org/1999/02/22-rdf-syntax-ns#"
   xmlns:svg="http://www.w3.org/2000/svg"
   xmlns="http://www.w3.org/2000/svg"
   xmlns:sodipodi="http://sodipodi.sourceforge.net/DTD/sodipodi-0.dtd"
   xmlns:inkscape="http://www.inkscape.org/namespaces/inkscape"
   version="1.1"
   id="svg2"
   xml:space="preserve"
   width="2543.24"
   height="734.28003"
   viewBox="0 0 2543.24 734.28003"
   sodipodi:docname="MIMS_logo_blue.svg"
   inkscape:version="0.92.3 (2405546, 2018-03-11)"><metadata
     id="metadata8"><rdf:RDF><cc:Work
         rdf:about=""><dc:format>image/svg+xml</dc:format><dc:type
           rdf:resource="http://purl.org/dc/dcmitype/StillImage" /><dc:title></dc:title></cc:Work></rdf:RDF></metadata><defs
     id="defs6" /><sodipodi:namedview
     pagecolor="#ffffff"
     bordercolor="#666666"
     borderopacity="1"
     objecttolerance="10"
     gridtolerance="10"
     guidetolerance="10"
     inkscape:pageopacity="0"
     inkscape:pageshadow="2"
     inkscape:window-width="1920"
     inkscape:window-height="1015"
     id="namedview4"
     showgrid="false"
     inkscape:zoom="0.13329454"
     inkscape:cx="1271.62"
     inkscape:cy="367.14001"
     inkscape:window-x="0"
     inkscape:window-y="0"
     inkscape:window-maximized="1"
     inkscape:current-layer="g10" /><g
     id="g10"
     inkscape:groupmode="layer"
     inkscape:label="ink_ext_XXXXXX"
     transform="matrix(1.3333333,0,0,-1.3333333,0,734.28)"><g
       id="g12"
       transform="scale(0.1)"><path
         d="m 6737.32,444.379 c 0,-97.348 -78.96,-176.231 -176.25,-176.231 -97.34,0 -176.28,78.883 -176.28,176.231 0,97.242 78.94,176.23 176.28,176.23 97.29,0 176.25,-78.988 176.25,-176.23"
         style="fill:#1c63b7;fill-opacity:1;fill-rule:nonzero;stroke:none"
         id="path14"
         inkscape:connector-curvature="0" /><path
         d="m 6737.32,834.738 c 0,-97.359 -78.96,-176.238 -176.25,-176.238 -97.34,0 -176.28,78.879 -176.28,176.238 0,97.352 78.94,176.342 176.28,176.342 97.29,0 176.25,-78.99 176.25,-176.342"
         style="fill:#1c63b7;fill-opacity:1;fill-rule:nonzero;stroke:none"
         id="path16"
         inkscape:connector-curvature="0" /><path
         d="m 6737.32,1217.72 c 0,-97.45 -78.96,-176.33 -176.25,-176.33 -97.34,0 -176.28,78.88 -176.28,176.33 0,97.24 78.94,176.23 176.28,176.23 97.29,0 176.25,-78.99 176.25,-176.23"
         style="fill:#1c63b7;fill-opacity:1;fill-rule:nonzero;stroke:none"
         id="path18"
         inkscape:connector-curvature="0" /><path
         d="m 6737.32,1600.59 c 0,-97.44 -78.96,-176.33 -176.25,-176.33 -97.34,0 -176.28,78.89 -176.28,176.33 0,97.24 78.94,176.23 176.28,176.23 97.29,0 176.25,-78.99 176.25,-176.23"
         style="fill:#1c63b7;fill-opacity:1;fill-rule:nonzero;stroke:none"
         id="path20"
         inkscape:connector-curvature="0" /><path
         d="m 6737.32,1983.46 c 0,-97.44 -78.96,-176.33 -176.25,-176.33 -97.34,0 -176.28,78.89 -176.28,176.33 0,97.26 78.94,176.25 176.28,176.25 97.29,0 176.25,-78.99 176.25,-176.25"
         style="fill:#1c63b7;fill-opacity:1;fill-rule:nonzero;stroke:none"
         id="path22"
         inkscape:connector-curvature="0" /><path
         d="m 6737.32,2366.35 c 0,-97.35 -78.96,-176.35 -176.25,-176.35 -97.34,0 -176.28,79 -176.28,176.35 0,97.34 78.94,176.23 176.28,176.23 97.29,0 176.25,-78.89 176.25,-176.23"
         style="fill:#1c63b7;fill-opacity:1;fill-rule:nonzero;stroke:none"
         id="path24"
         inkscape:connector-curvature="0" /><path
         d="m 6737.32,2749.22 c 0,-97.34 -78.96,-176.33 -176.25,-176.33 -97.34,0 -176.28,78.99 -176.28,176.33 0,97.3 78.94,176.29 176.28,176.29 97.29,0 176.25,-78.99 176.25,-176.29"
         style="fill:#1c63b7;fill-opacity:1;fill-rule:nonzero;stroke:none"
         id="path26"
         inkscape:connector-curvature="0" /><path
         d="m 6737.32,3132.15 c 0,-97.44 -78.96,-176.33 -176.25,-176.33 -97.34,0 -176.28,78.89 -176.28,176.33 0,97.25 78.94,176.23 176.28,176.23 97.29,0 176.25,-78.98 176.25,-176.23"
         style="fill:#1c63b7;fill-opacity:1;fill-rule:nonzero;stroke:none"
         id="path28"
         inkscape:connector-curvature="0" /><path
         d="m 6737.32,3514.92 c 0,-97.34 -78.96,-176.23 -176.25,-176.23 -97.34,0 -176.28,78.89 -176.28,176.23 0,97.35 78.94,176.33 176.28,176.33 97.29,0 176.25,-78.98 176.25,-176.33"
         style="fill:#1c63b7;fill-opacity:1;fill-rule:nonzero;stroke:none"
         id="path30"
         inkscape:connector-curvature="0" /><path
         d="m 6737.32,3897.89 c 0,-97.34 -78.96,-176.33 -176.25,-176.33 -97.34,0 -176.28,78.99 -176.28,176.33 0,97.35 78.94,176.23 176.28,176.23 97.29,0 176.25,-78.88 176.25,-176.23"
         style="fill:#1c63b7;fill-opacity:1;fill-rule:nonzero;stroke:none"
         id="path32"
         inkscape:connector-curvature="0" /><path
         d="m 6737.32,4280.78 c 0,-97.36 -78.96,-176.25 -176.25,-176.25 -97.34,0 -176.28,78.89 -176.28,176.25 0,97.35 78.94,176.23 176.28,176.23 97.29,0 176.25,-78.88 176.25,-176.23"
         style="fill:#1c63b7;fill-opacity:1;fill-rule:nonzero;stroke:none"
         id="path34"
         inkscape:connector-curvature="0" /><path
         d="m 7127.7,268.051 c 0,-97.352 -78.89,-176.2307 -176.25,-176.2307 -97.35,0 -176.24,78.8787 -176.24,176.2307 0,97.238 78.89,176.23 176.24,176.23 97.36,0 176.25,-78.992 176.25,-176.23"
         style="fill:#1c63b7;fill-opacity:1;fill-rule:nonzero;stroke:none"
         id="path36"
         inkscape:connector-curvature="0" /><path
         d="m 7127.7,658.398 c 0,-97.339 -78.89,-176.226 -176.25,-176.226 -97.35,0 -176.24,78.887 -176.24,176.226 0,97.352 78.89,176.34 176.24,176.34 97.36,0 176.25,-78.988 176.25,-176.34"
         style="fill:#1c63b7;fill-opacity:1;fill-rule:nonzero;stroke:none"
         id="path38"
         inkscape:connector-curvature="0" /><path
         d="m 7127.7,1041.39 c 0,-97.449 -78.89,-176.339 -176.25,-176.339 -97.35,0 -176.24,78.89 -176.24,176.339 0,97.24 78.89,176.23 176.24,176.23 97.36,0 176.25,-78.99 176.25,-176.23"
         style="fill:#1c63b7;fill-opacity:1;fill-rule:nonzero;stroke:none"
         id="path40"
         inkscape:connector-curvature="0" /><path
         d="m 7127.7,1424.26 c 0,-97.44 -78.89,-176.33 -176.25,-176.33 -97.35,0 -176.24,78.89 -176.24,176.33 0,97.34 78.89,176.23 176.24,176.23 97.36,0 176.25,-78.89 176.25,-176.23"
         style="fill:#1c63b7;fill-opacity:1;fill-rule:nonzero;stroke:none"
         id="path42"
         inkscape:connector-curvature="0" /><path
         d="m 7127.7,1807.13 c 0,-97.44 -78.89,-176.33 -176.25,-176.33 -97.35,0 -176.24,78.89 -176.24,176.33 0,97.34 78.89,176.23 176.24,176.23 97.36,0 176.25,-78.89 176.25,-176.23"
         style="fill:#1c63b7;fill-opacity:1;fill-rule:nonzero;stroke:none"
         id="path44"
         inkscape:connector-curvature="0" /><path
         d="m 7127.7,2190.1 c 0,-97.54 -78.89,-176.43 -176.25,-176.43 -97.35,0 -176.24,78.89 -176.24,176.43 0,97.36 78.89,176.15 176.24,176.15 97.36,0 176.25,-78.79 176.25,-176.15"
         style="fill:#1c63b7;fill-opacity:1;fill-rule:nonzero;stroke:none"
         id="path46"
         inkscape:connector-curvature="0" /><path
         d="m 7127.7,2572.89 c 0,-97.34 -78.89,-176.23 -176.25,-176.23 -97.35,0 -176.24,78.89 -176.24,176.23 0,97.35 78.89,176.33 176.24,176.33 97.36,0 176.25,-78.98 176.25,-176.33"
         style="fill:#1c63b7;fill-opacity:1;fill-rule:nonzero;stroke:none"
         id="path48"
         inkscape:connector-curvature="0" /><path
         d="m 7127.7,2955.82 c 0,-97.36 -78.89,-176.29 -176.25,-176.29 -97.35,0 -176.24,78.93 -176.24,176.29 0,97.35 78.89,176.23 176.24,176.23 97.36,0 176.25,-78.88 176.25,-176.23"
         style="fill:#1c63b7;fill-opacity:1;fill-rule:nonzero;stroke:none"
         id="path50"
         inkscape:connector-curvature="0" /><path
         d="m 7127.7,3338.69 c 0,-97.34 -78.89,-176.23 -176.25,-176.23 -97.35,0 -176.24,78.89 -176.24,176.23 0,97.35 78.89,176.23 176.24,176.23 97.36,0 176.25,-78.88 176.25,-176.23"
         style="fill:#1c63b7;fill-opacity:1;fill-rule:nonzero;stroke:none"
         id="path52"
         inkscape:connector-curvature="0" /><path
         d="m 7127.7,3721.66 c 0,-97.44 -78.89,-176.33 -176.25,-176.33 -97.35,0 -176.24,78.89 -176.24,176.33 0,97.34 78.89,176.23 176.24,176.23 97.36,0 176.25,-78.89 176.25,-176.23"
         style="fill:#1c63b7;fill-opacity:1;fill-rule:nonzero;stroke:none"
         id="path54"
         inkscape:connector-curvature="0" /><path
         d="m 7127.7,4105.7 c 0,-97.44 -78.89,-176.32 -176.25,-176.32 -97.35,0 -176.24,78.88 -176.24,176.32 0,97.35 78.89,176.23 176.24,176.23 97.36,0 176.25,-78.88 176.25,-176.23"
         style="fill:#1c63b7;fill-opacity:1;fill-rule:nonzero;stroke:none"
         id="path56"
         inkscape:connector-curvature="0" /><path
         d="m 7518.14,444.379 c 0,-97.348 -78.88,-176.231 -176.32,-176.231 -97.35,0 -176.23,78.883 -176.23,176.231 0,97.242 78.88,176.23 176.23,176.23 97.44,0 176.32,-78.988 176.32,-176.23"
         style="fill:#1c63b7;fill-opacity:1;fill-rule:nonzero;stroke:none"
         id="path58"
         inkscape:connector-curvature="0" /><path
         d="m 7518.14,834.738 c 0,-97.359 -78.88,-176.238 -176.32,-176.238 -97.35,0 -176.23,78.879 -176.23,176.238 0,97.352 78.88,176.342 176.23,176.342 97.44,0 176.32,-78.99 176.32,-176.342"
         style="fill:#1c63b7;fill-opacity:1;fill-rule:nonzero;stroke:none"
         id="path60"
         inkscape:connector-curvature="0" /><path
         d="m 6737.32,445.98 c 0,-97.351 -78.96,-176.23 -176.25,-176.23 -97.34,0 -176.28,78.879 -176.28,176.23 0,97.34 78.94,176.34 176.28,176.34 97.29,0 176.25,-79 176.25,-176.34"
         style="fill:#1c63b7;fill-opacity:1;fill-rule:nonzero;stroke:none"
         id="path62"
         inkscape:connector-curvature="0" /><path
         d="m 7513.69,95.1797 c -17.97,78.2423 -88.06,136.6793 -171.87,136.6793 -83.77,0 -153.83,-58.48 -171.8,-136.7379 l 343.67,0.0586"
         style="fill:#1c63b7;fill-opacity:1;fill-rule:nonzero;stroke:none"
         id="path64"
         inkscape:connector-curvature="0" /><path
         d="m 6732.09,95.1797 c -17.99,78.2423 -88.07,136.6793 -171.89,136.6793 -83.77,0 -153.81,-58.48 -171.8,-136.7379 l 343.69,0.0586"
         style="fill:#1c63b7;fill-opacity:1;fill-rule:nonzero;stroke:none"
         id="path66"
         inkscape:connector-curvature="0" /><path
         d="m 7518.14,445.98 c 0,-97.351 -78.88,-176.23 -176.32,-176.23 -97.35,0 -176.23,78.879 -176.23,176.23 0,97.34 78.88,176.34 176.23,176.34 97.44,0 176.32,-79 176.32,-176.34"
         style="fill:#1c63b7;fill-opacity:1;fill-rule:nonzero;stroke:none"
         id="path68"
         inkscape:connector-curvature="0" /><path
         d="m 7518.14,1217.72 c 0,-97.45 -78.88,-176.33 -176.32,-176.33 -97.35,0 -176.23,78.88 -176.23,176.33 0,97.24 78.88,176.23 176.23,176.23 97.44,0 176.32,-78.99 176.32,-176.23"
         style="fill:#1c63b7;fill-opacity:1;fill-rule:nonzero;stroke:none"
         id="path70"
         inkscape:connector-curvature="0" /><path
         d="m 7518.14,1600.59 c 0,-97.44 -78.88,-176.33 -176.32,-176.33 -97.35,0 -176.23,78.89 -176.23,176.33 0,97.24 78.88,176.23 176.23,176.23 97.44,0 176.32,-78.99 176.32,-176.23"
         style="fill:#1c63b7;fill-opacity:1;fill-rule:nonzero;stroke:none"
         id="path72"
         inkscape:connector-curvature="0" /><path
         d="m 7518.14,1983.46 c 0,-97.44 -78.88,-176.33 -176.32,-176.33 -97.35,0 -176.23,78.89 -176.23,176.33 0,97.26 78.88,176.25 176.23,176.25 97.44,0 176.32,-78.99 176.32,-176.25"
         style="fill:#1c63b7;fill-opacity:1;fill-rule:nonzero;stroke:none"
         id="path74"
         inkscape:connector-curvature="0" /><path
         d="m 7518.14,2366.35 c 0,-97.35 -78.88,-176.35 -176.32,-176.35 -97.35,0 -176.23,79 -176.23,176.35 0,97.34 78.88,176.23 176.23,176.23 97.44,0 176.32,-78.89 176.32,-176.23"
         style="fill:#1c63b7;fill-opacity:1;fill-rule:nonzero;stroke:none"
         id="path76"
         inkscape:connector-curvature="0" /><path
         d="m 7518.14,2749.22 c 0,-97.34 -78.88,-176.33 -176.32,-176.33 -97.35,0 -176.23,78.99 -176.23,176.33 0,97.3 78.88,176.29 176.23,176.29 97.44,0 176.32,-78.99 176.32,-176.29"
         style="fill:#1c63b7;fill-opacity:1;fill-rule:nonzero;stroke:none"
         id="path78"
         inkscape:connector-curvature="0" /><path
         d="m 7518.14,3132.15 c 0,-97.44 -78.88,-176.33 -176.32,-176.33 -97.35,0 -176.23,78.89 -176.23,176.33 0,97.25 78.88,176.23 176.23,176.23 97.44,0 176.32,-78.98 176.32,-176.23"
         style="fill:#1c63b7;fill-opacity:1;fill-rule:nonzero;stroke:none"
         id="path80"
         inkscape:connector-curvature="0" /><path
         d="m 7518.14,3132.09 c 0,-97.34 -78.88,-176.33 -176.32,-176.33 -97.35,0 -176.23,78.99 -176.23,176.33 0,97.31 78.88,176.29 176.23,176.29 97.44,0 176.32,-78.98 176.32,-176.29"
         style="fill:#1c63b7;fill-opacity:1;fill-rule:nonzero;stroke:none"
         id="path82"
         inkscape:connector-curvature="0" /><path
         d="m 7518.14,3515.02 c 0,-97.44 -78.88,-176.33 -176.32,-176.33 -97.35,0 -176.23,78.89 -176.23,176.33 0,97.25 78.88,176.23 176.23,176.23 97.44,0 176.32,-78.98 176.32,-176.23"
         style="fill:#1c63b7;fill-opacity:1;fill-rule:nonzero;stroke:none"
         id="path84"
         inkscape:connector-curvature="0" /><path
         d="m 7518.14,3896.74 c 0,-97.36 -78.88,-176.25 -176.32,-176.25 -97.35,0 -176.23,78.89 -176.23,176.25 0,97.34 78.88,176.23 176.23,176.23 97.44,0 176.32,-78.89 176.32,-176.23"
         style="fill:#1c63b7;fill-opacity:1;fill-rule:nonzero;stroke:none"
         id="path86"
         inkscape:connector-curvature="0" /><path
         d="m 7908.5,268.051 c 0,-97.352 -78.89,-176.2307 -176.23,-176.2307 -97.35,0 -176.23,78.8787 -176.23,176.2307 0,97.238 78.88,176.23 176.23,176.23 97.34,0 176.23,-78.992 176.23,-176.23"
         style="fill:#1c63b7;fill-opacity:1;fill-rule:nonzero;stroke:none"
         id="path88"
         inkscape:connector-curvature="0" /><path
         d="m 7908.5,658.398 c 0,-97.339 -78.89,-176.226 -176.23,-176.226 -97.35,0 -176.23,78.887 -176.23,176.226 0,97.352 78.88,176.34 176.23,176.34 97.34,0 176.23,-78.988 176.23,-176.34"
         style="fill:#1c63b7;fill-opacity:1;fill-rule:nonzero;stroke:none"
         id="path90"
         inkscape:connector-curvature="0" /><path
         d="m 7908.5,1041.39 c 0,-97.449 -78.89,-176.339 -176.23,-176.339 -97.35,0 -176.23,78.89 -176.23,176.339 0,97.24 78.88,176.23 176.23,176.23 97.34,0 176.23,-78.99 176.23,-176.23"
         style="fill:#1c63b7;fill-opacity:1;fill-rule:nonzero;stroke:none"
         id="path92"
         inkscape:connector-curvature="0" /><path
         d="m 7908.5,1424.26 c 0,-97.44 -78.89,-176.33 -176.23,-176.33 -97.35,0 -176.23,78.89 -176.23,176.33 0,97.24 78.88,176.23 176.23,176.23 97.34,0 176.23,-78.99 176.23,-176.23"
         style="fill:#1c63b7;fill-opacity:1;fill-rule:nonzero;stroke:none"
         id="path94"
         inkscape:connector-curvature="0" /><path
         d="m 7908.5,1807.13 c 0,-97.44 -78.89,-176.33 -176.23,-176.33 -97.35,0 -176.23,78.89 -176.23,176.33 0,97.25 78.88,176.23 176.23,176.23 97.34,0 176.23,-78.98 176.23,-176.23"
         style="fill:#1c63b7;fill-opacity:1;fill-rule:nonzero;stroke:none"
         id="path96"
         inkscape:connector-curvature="0" /><path
         d="m 7908.5,2190.1 c 0,-97.44 -78.89,-176.43 -176.23,-176.43 -97.35,0 -176.23,78.99 -176.23,176.43 0,97.36 78.88,176.15 176.23,176.15 97.34,0 176.23,-78.79 176.23,-176.15"
         style="fill:#1c63b7;fill-opacity:1;fill-rule:nonzero;stroke:none"
         id="path98"
         inkscape:connector-curvature="0" /><path
         d="m 7908.5,2572.89 c 0,-97.34 -78.89,-176.23 -176.23,-176.23 -97.35,0 -176.23,78.89 -176.23,176.23 0,97.35 78.88,176.33 176.23,176.33 97.34,0 176.23,-78.98 176.23,-176.33"
         style="fill:#1c63b7;fill-opacity:1;fill-rule:nonzero;stroke:none"
         id="path100"
         inkscape:connector-curvature="0" /><path
         d="m 7908.5,2955.82 c 0,-97.36 -78.89,-176.29 -176.23,-176.29 -97.35,0 -176.23,78.93 -176.23,176.29 0,97.35 78.88,176.23 176.23,176.23 97.34,0 176.23,-78.88 176.23,-176.23"
         style="fill:#1c63b7;fill-opacity:1;fill-rule:nonzero;stroke:none"
         id="path102"
         inkscape:connector-curvature="0" /><path
         d="m 7908.5,3338.69 c 0,-97.34 -78.89,-176.23 -176.23,-176.23 -97.35,0 -176.23,78.89 -176.23,176.23 0,97.35 78.88,176.23 176.23,176.23 97.34,0 176.23,-78.88 176.23,-176.23"
         style="fill:#1c63b7;fill-opacity:1;fill-rule:nonzero;stroke:none"
         id="path104"
         inkscape:connector-curvature="0" /><path
         d="m 7908.5,3722.74 c 0,-97.35 -78.89,-176.24 -176.23,-176.24 -97.35,0 -176.23,78.89 -176.23,176.24 0,97.34 78.88,176.23 176.23,176.23 97.34,0 176.23,-78.89 176.23,-176.23"
         style="fill:#1c63b7;fill-opacity:1;fill-rule:nonzero;stroke:none"
         id="path106"
         inkscape:connector-curvature="0" /><path
         d="M 8554.53,94.4297 8907.64,5416.39 h 1458.46 l 1115.3,-4001.08 1029.5,4001.08 h 1442.5 L 14279.9,94.4297 H 13197.2 L 13013.4,3731.66 12032.9,94.4297 H 10819.6 L 9811.74,3731.66 9630.74,94.4297 H 8554.53"
         style="fill:#1c63b7;fill-opacity:1;fill-rule:nonzero;stroke:none"
         id="path108"
         inkscape:connector-curvature="0" /><path
         d="M 0,94.4297 353.098,5416.39 H 1811.6 L 2926.86,1415.31 3956.35,5416.39 H 5398.87 L 5725.29,94.4297 H 4642.64 L 4458.85,3731.66 3478.38,94.4297 H 2265 L 1257.23,3731.66 1076.17,94.4297 H 0"
         style="fill:#1c63b7;fill-opacity:1;fill-rule:nonzero;stroke:none"
         id="path110"
         inkscape:connector-curvature="0" /><g
         id="g112"
         transform="scale(1.17018)"><path
           d="m 12602.3,1560.51 893.4,86.84 c 53.8,-299.92 162.9,-520.22 327.3,-660.78 164.5,-140.729 386.2,-210.964 665.5,-210.964 295.8,0 518.5,62.52 668.5,187.721 149.9,125.033 224.9,271.383 224.9,438.933 0,107.52 -31.5,199.05 -94.6,274.53 -63.1,75.51 -173.3,141.16 -330.4,197.05 -107.5,37.18 -352.6,103.36 -735.2,198.5 -492.2,122.01 -837.7,271.94 -1036.2,449.87 -279.2,250.23 -418.9,555.3 -418.9,915.15 0,231.6 65.7,448.25 197.1,649.9 131.2,201.66 320.5,355.27 567.7,460.7 247.1,105.52 545.5,158.25 895.1,158.25 570.7,0 1000.5,-125.12 1288.9,-375.36 288.6,-250.31 440,-584.31 454.5,-1002.08 l -918.3,-40.27 c -39.3,233.63 -123.6,401.67 -252.8,504.08 -129.3,102.36 -323.2,153.6 -581.7,153.6 -266.8,0 -475.7,-54.85 -626.6,-164.44 -97.3,-70.4 -145.8,-164.42 -145.8,-282.32 0,-107.6 45.4,-199.62 136.5,-276.08 115.8,-97.31 397,-198.56 843.8,-304.05 446.7,-105.51 777.1,-214.6 991.1,-327.3 214.1,-112.71 381.7,-266.8 502.6,-462.28 121.1,-195.43 181.6,-436.9 181.6,-724.33 0,-260.58 -72.4,-504.667 -217.2,-732.145 C 15938.3,445.673 15733.6,276.633 15468.8,165.973 15204,55.3832 14874.2,0 14479.1,0 c -575,0 -1016.4,132.928 -1324.6,398.672 -308.2,265.77 -492.3,653.058 -552.2,1161.838"
           style="fill:#1c63b7;fill-opacity:1;fill-rule:nonzero;stroke:none"
           id="path114"
           inkscape:connector-curvature="0" /></g><path
         d="m 7778.01,4978.05 c 0,-240.67 -195.09,-435.61 -435.56,-435.61 -240.57,0 -435.67,194.94 -435.67,435.61 0,240.48 195.1,435.52 435.67,435.52 240.47,0 435.56,-195.04 435.56,-435.52"
         style="fill:#93b0da;fill-opacity:1;fill-rule:nonzero;stroke:none"
         id="path116"
         inkscape:connector-curvature="0" /></g></g></svg>